<svg width="28" height="28" viewBox="0 0 28 28" fill="none" xmlns="http://www.w3.org/2000/svg">
<path d="M14 2.625C11.7502 2.625 9.551 3.29213 7.68039 4.54203C5.80978 5.79193 4.35182 7.56847 3.49088 9.64698C2.62993 11.7255 2.40467 14.0126 2.84357 16.2192C3.28248 18.4257 4.36584 20.4525 5.95667 22.0433C7.54749 23.6342 9.57432 24.7175 11.7809 25.1564C13.9874 25.5953 16.2745 25.3701 18.353 24.5091C20.4315 23.6482 22.2081 22.1902 23.458 20.3196C24.7079 18.449 25.375 16.2498 25.375 14C25.3692 10.9849 24.1689 8.09502 22.037 5.96305C19.905 3.83107 17.0151 2.63078 14 2.625ZM19.1844 14.3391C19.1367 14.4451 19.07 14.5415 18.9875 14.6234L15.2797 18.3313C15.2003 18.4129 15.1049 18.4774 14.9996 18.5207C14.8942 18.5639 14.7811 18.5851 14.6672 18.5828C14.5517 18.5853 14.4368 18.5643 14.3297 18.521C14.2225 18.4778 14.1252 18.4132 14.0438 18.3313C13.8801 18.1672 13.7882 17.945 13.7882 17.7133C13.7882 17.4816 13.8801 17.2593 14.0438 17.0953L16.2641 14.875H9.62501C9.39294 14.875 9.17038 14.7828 9.00629 14.6187C8.84219 14.4546 8.75001 14.2321 8.75001 14C8.75001 13.7679 8.84219 13.5454 9.00629 13.3813C9.17038 13.2172 9.39294 13.125 9.62501 13.125H16.2641L14.0438 10.9047C13.8929 10.7382 13.8119 10.5202 13.8174 10.2956C13.823 10.0711 13.9146 9.85727 14.0735 9.69845C14.2323 9.53963 14.4461 9.44796 14.6706 9.44243C14.8952 9.4369 15.1132 9.51794 15.2797 9.66875L18.9875 13.3766C19.07 13.4585 19.1367 13.5549 19.1844 13.6609C19.272 13.8785 19.272 14.1215 19.1844 14.3391Z" fill="white"/>
</svg>
