<svg width="22" height="22" viewBox="0 0 22 22" fill="none" xmlns="http://www.w3.org/2000/svg">
<path fill-rule="evenodd" clip-rule="evenodd" d="M14.4375 2.75V2.0625C14.4375 1.6828 14.7453 1.375 15.125 1.375C15.5047 1.375 15.8125 1.6828 15.8125 2.0625V2.75H17.875C17.875 2.75 18.4445 2.75 18.8473 3.15273C18.8473 3.15273 19.25 3.55545 19.25 4.125V17.875C19.25 17.875 19.25 18.4445 18.8473 18.8473C18.8473 18.8473 18.4445 19.25 17.875 19.25H4.125C4.125 19.25 3.55545 19.25 3.15273 18.8473C3.15273 18.8473 2.75 18.4445 2.75 17.875V4.125C2.75 4.125 2.75 3.55546 3.15273 3.15273C3.15273 3.15273 3.55546 2.75 4.125 2.75H6.1875V2.0625C6.1875 1.6828 6.4953 1.375 6.875 1.375C7.2547 1.375 7.5625 1.6828 7.5625 2.0625V2.75H14.4375ZM4.125 8.25V17.875H17.875V8.25H4.125ZM17.875 6.875H4.125V4.125H6.1875V4.8125C6.1875 5.1922 6.4953 5.5 6.875 5.5C7.2547 5.5 7.5625 5.1922 7.5625 4.8125V4.125H14.4375V4.8125C14.4375 5.1922 14.7453 5.5 15.125 5.5C15.5047 5.5 15.8125 5.1922 15.8125 4.8125V4.125H17.875V6.875Z" fill="white"/>
</svg>
