<svg width="28" height="28" viewBox="0 0 28 28" fill="none" xmlns="http://www.w3.org/2000/svg">
<path d="M18.0126 14L9.88128 22.1313C9.71719 22.2954 9.625 22.5179 9.625 22.75C9.625 22.9821 9.71719 23.2046 9.88128 23.3687C10.0454 23.5328 10.2679 23.625 10.5 23.625C10.7321 23.625 10.9546 23.5328 11.1187 23.3687L19.8687 14.6187C20.2104 14.277 20.2104 13.723 19.8687 13.3813L11.1187 4.63128C10.9546 4.46719 10.7321 4.375 10.5 4.375C10.2679 4.375 10.0454 4.46719 9.88128 4.63128C9.71719 4.79538 9.625 5.01794 9.625 5.25C9.625 5.48206 9.71719 5.70462 9.88128 5.86872L18.0126 14Z" fill="white"/>
</svg>
