<svg width="28" height="28" viewBox="0 0 28 28" fill="none" xmlns="http://www.w3.org/2000/svg">
<path d="M18.1184 5.86905L18.1187 5.86872C18.2828 5.70462 18.375 5.48206 18.375 5.25C18.375 5.01794 18.2828 4.79538 18.1187 4.63128L18.1182 4.63078L18.1112 4.62382L18.1107 4.62332C17.9473 4.46411 17.7281 4.375 17.5 4.375C17.2679 4.375 17.0454 4.46719 16.8813 4.63128L16.881 4.63161L8.13128 13.3813C7.96719 13.5454 7.875 13.7679 7.875 14C7.875 14.2321 7.96719 14.4546 8.13128 14.6187L16.8813 23.3687C17.0454 23.5328 17.2679 23.625 17.5 23.625C17.7321 23.625 17.9546 23.5328 18.1187 23.3687C18.2828 23.2046 18.375 22.9821 18.375 22.75C18.375 22.5179 18.2828 22.2954 18.1187 22.1313L9.98744 14L18.1184 5.86905Z" fill="white"/>
</svg>
