<svg width="22" height="22" viewBox="0 0 22 22" fill="none" xmlns="http://www.w3.org/2000/svg">
<path fill-rule="evenodd" clip-rule="evenodd" d="M21.2532 11.2792C21.2532 11.2792 21.0613 11.7112 20.6697 12.3331C20.6697 12.3331 19.8981 13.5585 18.8768 14.5799C18.8768 14.5799 15.5816 17.875 11 17.875C11 17.875 6.41835 17.875 3.12324 14.5799C3.12324 14.5799 2.1019 13.5585 1.33032 12.3331C1.33032 12.3331 0.938726 11.7112 0.746755 11.2792C0.667748 11.1015 0.667748 10.8985 0.746755 10.7208C0.746755 10.7208 0.938725 10.2888 1.33032 9.66689C1.33032 9.66689 2.1019 8.44146 3.12324 7.42011C3.12324 7.42011 6.41836 4.125 11 4.125C11 4.125 15.5816 4.125 18.8768 7.42011C18.8768 7.42011 19.8981 8.44145 20.6697 9.66689C20.6697 9.66689 21.0613 10.2888 21.2532 10.7208C21.3323 10.8985 21.3323 11.1015 21.2532 11.2792ZM19.5061 11.6005C19.5061 11.6005 19.7198 11.2611 19.8591 11C19.8591 11 19.7198 10.7389 19.5061 10.3995C19.5061 10.3995 18.8167 9.30463 17.9045 8.39239C17.9045 8.39239 15.0121 5.5 11 5.5C11 5.5 6.9879 5.5 4.09551 8.39239C4.09551 8.39239 3.18326 9.30463 2.49389 10.3995C2.49389 10.3995 2.28024 10.7389 2.14095 11C2.14095 11 2.28024 11.2611 2.49389 11.6005C2.49389 11.6005 3.18326 12.6954 4.09551 13.6076C4.09551 13.6076 6.9879 16.5 11 16.5C11 16.5 15.0121 16.5 17.9045 13.6076C17.9045 13.6076 18.8167 12.6954 19.5061 11.6005Z" fill="white"/>
<path fill-rule="evenodd" clip-rule="evenodd" d="M11 6.875C11 6.875 12.7086 6.875 13.9168 8.08318C13.9168 8.08318 15.125 9.29137 15.125 11C15.125 11 15.125 12.7086 13.9168 13.9168C13.9168 13.9168 12.7086 15.125 11 15.125C11 15.125 9.29137 15.125 8.08318 13.9168C8.08318 13.9168 6.875 12.7086 6.875 11C6.875 11 6.875 9.29137 8.08318 8.08318C8.08318 8.08318 9.29137 6.875 11 6.875ZM11 8.25C11 8.25 9.86091 8.25 9.05546 9.05546C9.05546 9.05546 8.25 9.86091 8.25 11C8.25 11 8.25 12.1391 9.05546 12.9445C9.05546 12.9445 9.86091 13.75 11 13.75C11 13.75 12.1391 13.75 12.9445 12.9445C12.9445 12.9445 13.75 12.1391 13.75 11C13.75 11 13.75 9.86091 12.9445 9.05546C12.9445 9.05546 12.1391 8.25 11 8.25Z" fill="white"/>
</svg>
