<svg width="32" height="32" viewBox="0 0 32 32" fill="none" xmlns="http://www.w3.org/2000/svg">
<circle cx="16" cy="16" r="16" fill="#DA1A32"/>
<path d="M22.1875 10.375H19.375V9.8125C19.3731 9.36552 19.1948 8.93737 18.8787 8.6213C18.5626 8.30523 18.1345 8.12685 17.6875 8.125H14.3125C13.8655 8.12685 13.4374 8.30523 13.1213 8.6213C12.8052 8.93737 12.6269 9.36552 12.625 9.8125V10.375H9.8125C9.66332 10.375 9.52024 10.4343 9.41475 10.5398C9.30926 10.6452 9.25 10.7883 9.25 10.9375C9.25 11.0867 9.30926 11.2298 9.41475 11.3352C9.52024 11.4407 9.66332 11.5 9.8125 11.5H10.375V21.625C10.375 21.9234 10.4935 22.2095 10.7045 22.4205C10.9155 22.6315 11.2016 22.75 11.5 22.75H20.5C20.7984 22.75 21.0845 22.6315 21.2955 22.4205C21.5065 22.2095 21.625 21.9234 21.625 21.625V11.5H22.1875C22.3367 11.5 22.4798 11.4407 22.5852 11.3352C22.6907 11.2298 22.75 11.0867 22.75 10.9375C22.75 10.7883 22.6907 10.6452 22.5852 10.5398C22.4798 10.4343 22.3367 10.375 22.1875 10.375ZM14.875 18.8125C14.875 18.9617 14.8157 19.1048 14.7102 19.2102C14.6048 19.3157 14.4617 19.375 14.3125 19.375C14.1633 19.375 14.0202 19.3157 13.9148 19.2102C13.8093 19.1048 13.75 18.9617 13.75 18.8125V14.3125C13.75 14.1633 13.8093 14.0202 13.9148 13.9148C14.0202 13.8093 14.1633 13.75 14.3125 13.75C14.4617 13.75 14.6048 13.8093 14.7102 13.9148C14.8157 14.0202 14.875 14.1633 14.875 14.3125V18.8125ZM18.25 18.8125C18.25 18.9617 18.1907 19.1048 18.0852 19.2102C17.9798 19.3157 17.8367 19.375 17.6875 19.375C17.5383 19.375 17.3952 19.3157 17.2898 19.2102C17.1843 19.1048 17.125 18.9617 17.125 18.8125V14.3125C17.125 14.1633 17.1843 14.0202 17.2898 13.9148C17.3952 13.8093 17.5383 13.75 17.6875 13.75C17.8367 13.75 17.9798 13.8093 18.0852 13.9148C18.1907 14.0202 18.25 14.1633 18.25 14.3125V18.8125ZM18.25 10.375H13.75V9.8125C13.75 9.66332 13.8093 9.52024 13.9148 9.41475C14.0202 9.30926 14.1633 9.25 14.3125 9.25H17.6875C17.8367 9.25 17.9798 9.30926 18.0852 9.41475C18.1907 9.52024 18.25 9.66332 18.25 9.8125V10.375Z" fill="white"/>
</svg>
