<svg width="32" height="32" viewBox="0 0 32 32" fill="none" xmlns="http://www.w3.org/2000/svg">
<circle cx="16" cy="16" r="16" fill="#FFB443"/>
<path fill-rule="evenodd" clip-rule="evenodd" d="M10.7689 6.94446H21.4711C21.8766 6.94446 22.2654 7.10554 22.5522 7.39226C22.8389 7.67898 23 8.06786 23 8.47334V25.2911C22.9992 25.4272 22.9626 25.5607 22.8938 25.6781C22.8251 25.7955 22.7265 25.8928 22.6082 25.96C22.4871 26.0249 22.3512 26.0573 22.2139 26.054C22.0765 26.0506 21.9424 26.0116 21.8246 25.9409L16.12 22.3671L10.4058 25.9409C10.2854 26.016 10.1463 26.0558 10.0044 26.0555C9.87388 26.0578 9.74514 26.0247 9.63177 25.96C9.51342 25.8928 9.41489 25.7955 9.34611 25.6781C9.27732 25.5607 9.24072 25.4272 9.23999 25.2911V8.47334C9.23999 8.06786 9.40107 7.67898 9.68779 7.39226C9.97451 7.10554 10.3634 6.94446 10.7689 6.94446ZM15.3554 18.4111V15.3533H12.2977V13.8244H15.3554V10.7667H16.8843V13.8244H19.9421V15.3533H16.8843V18.4111H15.3554Z" fill="#0F0505"/>
</svg>
