<svg width="32" height="32" viewBox="0 0 32 32" fill="none" xmlns="http://www.w3.org/2000/svg">
<circle cx="16" cy="16" r="16" fill="#FFB443"/>
<path fill-rule="evenodd" clip-rule="evenodd" d="M10.7691 6.94446H21.4713C21.8768 6.94446 22.2657 7.10554 22.5524 7.39226C22.8391 7.67898 23.0002 8.06786 23.0002 8.47334V25.2911C22.9995 25.4272 22.9629 25.5607 22.8941 25.6781C22.8253 25.7955 22.7268 25.8928 22.6084 25.96C22.4874 26.0249 22.3515 26.0573 22.2141 26.054C22.0768 26.0506 21.9426 26.0116 21.8249 25.9409L16.1202 22.3671L10.406 25.9409C10.2857 26.016 10.1466 26.0558 10.0047 26.0555C9.87412 26.0578 9.74538 26.0247 9.63201 25.96C9.51367 25.8928 9.41513 25.7955 9.34635 25.6781C9.27757 25.5607 9.24097 25.4272 9.24023 25.2911V8.47334C9.24023 8.06786 9.40131 7.67898 9.68803 7.39226C9.97476 7.10554 10.3636 6.94446 10.7691 6.94446ZM15.3557 18.4111V15.3533H12.298V13.8244H15.3557V10.7667H16.8846V13.8244H19.9424V15.3533H16.8846V18.4111H15.3557Z" fill="#0F0505"/>
</svg>
