<svg width="32" height="32" viewBox="0 0 32 32" fill="none" xmlns="http://www.w3.org/2000/svg">
<g clip-path="url(#clip0_216_11012)">
<path d="M0 16C0 7.16344 7.16344 0 16 0C24.8366 0 32 7.16344 32 16C32 24.8366 24.8366 32 16 32C7.16344 32 0 24.8366 0 16Z" fill="white"/>
<path d="M16 9.60003C17.9594 9.60003 19.2811 10.4464 20.0347 11.1537L22.9797 8.27829C21.171 6.59713 18.8173 5.56525 16 5.56525C11.9188 5.56525 8.39416 7.90727 6.67822 11.316L10.0521 13.9363C10.8985 11.4203 13.2405 9.60003 16 9.60003V9.60003Z" fill="#EA4335"/>
<path d="M26.0174 16.2318C26.0174 15.3738 25.9478 14.7477 25.7971 14.0984H16V17.9709H21.7507C21.6348 18.9332 21.0087 20.3825 19.6174 21.3564L22.9101 23.9071C24.8812 22.0869 26.0174 19.4086 26.0174 16.2318V16.2318Z" fill="#4285F4"/>
<path d="M10.0637 18.0639C9.84345 17.4146 9.71591 16.7189 9.71591 16.0001C9.71591 15.2813 9.84345 14.5856 10.0521 13.9363L6.67823 11.316C5.97098 12.7305 5.56519 14.3189 5.56519 16.0001C5.56519 17.6813 5.97098 19.2697 6.67823 20.6842L10.0637 18.0639V18.0639Z" fill="#FBBC05"/>
<path d="M15.9998 26.4348C18.8172 26.4348 21.1824 25.5073 22.91 23.9073L19.6172 21.3565C18.7361 21.971 17.5535 22.4 15.9998 22.4C13.2404 22.4 10.8984 20.5797 10.0636 18.0638L6.6897 20.6841C8.40564 24.0928 11.9187 26.4348 15.9998 26.4348V26.4348Z" fill="#34A853"/>
</g>
<defs>
<clipPath id="clip0_216_11012">
<rect width="32" height="32" fill="white"/>
</clipPath>
</defs>
</svg>
