<svg width="20" height="20" viewBox="0 0 20 20" fill="none" xmlns="http://www.w3.org/2000/svg">
<path d="M17.5469 4.05469C17.1233 3.57928 16.6066 3.19597 16.0287 2.92853C15.4508 2.6611 14.8241 2.51524 14.1876 2.50001C13.5515 2.48606 12.9193 2.60066 12.3286 2.83693C11.7379 3.0732 11.201 3.42628 10.7501 3.87501L10.0001 4.61719L9.41413 4.03907C7.59381 2.21094 4.62507 2.05469 2.80475 3.70313C2.33102 4.12811 1.94895 4.64525 1.68191 5.22293C1.41486 5.80061 1.26845 6.42669 1.25163 7.06288C1.23482 7.69908 1.34794 8.33202 1.58409 8.923C1.82024 9.51399 2.17445 10.0506 2.62506 10.5L9.11725 16.9922C9.23276 17.1089 9.37025 17.2015 9.52178 17.2647C9.67332 17.3279 9.83588 17.3605 10.0001 17.3605C10.1643 17.3605 10.3268 17.3279 10.4783 17.2647C10.6299 17.2015 10.7674 17.1089 10.8829 16.9922L17.211 10.6641C19.0391 8.84375 19.1876 5.87501 17.5469 4.05469Z" fill="#FFB443"/>
</svg>
