<svg width="20" height="20" viewBox="0 0 20 20" fill="none" xmlns="http://www.w3.org/2000/svg">
<path d="M17.5469 4.05472C17.1233 3.57931 16.6065 3.196 16.0286 2.92856C15.4507 2.66113 14.8241 2.51527 14.1875 2.50004C13.5515 2.4861 12.9192 2.60069 12.3285 2.83696C11.7379 3.07323 11.201 3.42631 10.75 3.87504L10 4.61722L9.41407 4.0391C7.59375 2.21097 4.625 2.05472 2.80469 3.70316C2.33096 4.12814 1.94889 4.64528 1.68185 5.22296C1.4148 5.80064 1.26839 6.42672 1.25157 7.06291C1.23475 7.69911 1.34788 8.33205 1.58403 8.92303C1.82018 9.51402 2.17439 10.0506 2.625 10.5L9.11719 16.9922C9.2327 17.1089 9.37019 17.2015 9.52172 17.2648C9.67325 17.328 9.83581 17.3605 10 17.3605C10.1642 17.3605 10.3268 17.328 10.4783 17.2648C10.6298 17.2015 10.7673 17.1089 10.8828 16.9922L17.2109 10.6641C19.0391 8.84379 19.1875 5.87504 17.5469 4.05472Z" fill="#DA1A32"/>
</svg>
