<svg width="20" height="20" viewBox="0 0 20 20" fill="none" xmlns="http://www.w3.org/2000/svg">
<path fill-rule="evenodd" clip-rule="evenodd" d="M10.8851 16.9988L10.8846 16.9993L10.8837 17.0002C10.8837 17.0002 10.5164 17.3629 9.99998 17.3629C9.99998 17.3629 9.48251 17.3629 9.11485 16.9988L2.62054 10.5045C2.62054 10.5045 1.93765 9.82109 1.58063 8.92362C1.58063 8.92362 1.22361 8.02615 1.25047 7.06064C1.25047 7.06064 1.27732 6.09514 1.68368 5.2189C1.68368 5.2189 2.09003 4.34266 2.80968 3.69843C2.80968 3.69843 4.21317 2.43596 6.1684 2.56288C6.1684 2.56288 8.0629 2.68585 9.41738 4.03356L10.0002 4.62083L10.7441 3.87205C10.7441 3.87205 11.4289 3.18771 12.3264 2.83069C12.3264 2.83069 13.2239 2.47367 14.1894 2.50053C14.1894 2.50053 15.1549 2.52738 16.0311 2.93374C16.0311 2.93374 16.9074 3.34009 17.5516 4.05974C17.5516 4.05974 18.8141 5.46323 18.6871 7.41846C18.6871 7.41846 18.5642 9.31296 17.2165 10.6674L10.8872 16.9967L10.8851 16.9988ZM9.99998 16.1129C9.99998 16.1129 10.003 16.1129 10.0052 16.1109L16.3304 9.78577C16.3304 9.78577 17.3472 8.76385 17.4398 7.33749C17.4398 7.33749 17.5326 5.90771 16.6202 4.89347C16.6202 4.89347 16.1478 4.36572 15.5052 4.06773C15.5052 4.06773 14.8627 3.76974 14.1546 3.75004C14.1546 3.75004 13.4466 3.73035 12.7884 3.99216C12.7884 3.99216 12.1303 4.25398 11.6309 4.75303L10.4434 5.94835L10.4402 5.95147C10.1952 6.19462 9.79951 6.19312 9.55636 5.94811L8.53571 4.91965C8.53571 4.91965 7.51379 3.90284 6.08743 3.81025C6.08743 3.81025 4.65765 3.71745 3.64341 4.62978C3.64341 4.62978 3.11566 5.10221 2.81767 5.74478C2.81767 5.74478 2.51968 6.38736 2.49998 7.0954C2.49998 7.0954 2.48029 7.80343 2.7421 8.46158C2.7421 8.46158 3.00392 9.11973 3.50442 9.6206L9.99448 16.1107C9.99448 16.1107 9.99677 16.1129 9.99998 16.1129Z" fill="white"/>
</svg>
