<svg width="20" height="20" viewBox="0 0 20 20" fill="none" xmlns="http://www.w3.org/2000/svg">
<path d="M17.5469 4.05466C17.1233 3.57925 16.6066 3.19594 16.0287 2.9285C15.4508 2.66107 14.8241 2.51521 14.1876 2.49998C13.5515 2.48603 12.9193 2.60063 12.3286 2.8369C11.7379 3.07317 11.201 3.42625 10.7501 3.87498L10.0001 4.61716L9.41413 4.03904C7.59381 2.21091 4.62507 2.05466 2.80475 3.7031C2.33102 4.12808 1.94895 4.64522 1.68191 5.2229C1.41486 5.80058 1.26845 6.42666 1.25163 7.06285C1.23482 7.69905 1.34794 8.33199 1.58409 8.92297C1.82024 9.51395 2.17445 10.0506 2.62506 10.5L9.11725 16.9922C9.23276 17.1088 9.37025 17.2015 9.52178 17.2647C9.67332 17.3279 9.83588 17.3605 10.0001 17.3605C10.1643 17.3605 10.3268 17.3279 10.4783 17.2647C10.6299 17.2015 10.7674 17.1088 10.8829 16.9922L17.211 10.664C19.0391 8.84372 19.1876 5.87498 17.5469 4.05466Z" fill="#DA1A32"/>
</svg>
