<svg width="20" height="20" viewBox="0 0 20 20" fill="none" xmlns="http://www.w3.org/2000/svg">
<path d="M17.5468 4.05466C17.1232 3.57925 16.6064 3.19594 16.0286 2.9285C15.4507 2.66107 14.824 2.51521 14.1874 2.49998C13.5514 2.48603 12.9191 2.60063 12.3285 2.8369C11.7378 3.07317 11.2009 3.42625 10.7499 3.87498L9.99994 4.61716L9.414 4.03904C7.59369 2.21091 4.62494 2.05466 2.80463 3.7031C2.3309 4.12808 1.94883 4.64522 1.68178 5.2229C1.41474 5.80058 1.26833 6.42666 1.25151 7.06285C1.23469 7.69905 1.34782 8.33199 1.58397 8.92297C1.82012 9.51395 2.17433 10.0506 2.62494 10.5L9.11713 16.9922C9.23264 17.1088 9.37013 17.2015 9.52166 17.2647C9.67319 17.3279 9.83575 17.3605 9.99994 17.3605C10.1641 17.3605 10.3267 17.3279 10.4782 17.2647C10.6298 17.2015 10.7672 17.1088 10.8828 16.9922L17.2109 10.664C19.039 8.84372 19.1874 5.87498 17.5468 4.05466Z" fill="white"/>
</svg>
