<svg width="20" height="20" viewBox="0 0 20 20" fill="none" xmlns="http://www.w3.org/2000/svg">
<path d="M17.0938 8.10153L10.8438 2.42184C10.6133 2.21103 10.3123 2.09412 10 2.09412C9.6877 2.09412 9.3867 2.21103 9.15626 2.42184L2.90626 8.10153C2.7783 8.2186 2.6761 8.36102 2.60616 8.51973C2.53622 8.67844 2.50007 8.84997 2.50001 9.02341V16.2187C2.49493 16.5339 2.60619 16.8398 2.81251 17.0781C2.92961 17.2113 3.07387 17.3178 3.23557 17.3906C3.39728 17.4633 3.57269 17.5006 3.75001 17.5H7.50001C7.66577 17.5 7.82475 17.4341 7.94196 17.3169C8.05917 17.1997 8.12501 17.0407 8.12501 16.875V13.125C8.12501 12.9592 8.19086 12.8002 8.30807 12.683C8.42528 12.5658 8.58425 12.5 8.75001 12.5H11.25C11.4158 12.5 11.5747 12.5658 11.692 12.683C11.8092 12.8002 11.875 12.9592 11.875 13.125V16.875C11.875 17.0407 11.9409 17.1997 12.0581 17.3169C12.1753 17.4341 12.3343 17.5 12.5 17.5H16.25C16.4573 17.5018 16.6617 17.4507 16.8438 17.3515C17.0419 17.2436 17.2073 17.0845 17.3228 16.8907C17.4383 16.6968 17.4995 16.4756 17.5 16.25V9.02341C17.5 8.84997 17.4638 8.67844 17.3939 8.51973C17.3239 8.36102 17.2217 8.2186 17.0938 8.10153Z" fill="#FFB443"/>
</svg>
