<svg width="20" height="20" viewBox="0 0 20 20" fill="none" xmlns="http://www.w3.org/2000/svg">
<path d="M17.0937 8.10156L10.8437 2.42187C10.6132 2.21106 10.3122 2.09415 9.99992 2.09415C9.68761 2.09415 9.3866 2.21106 9.15617 2.42187L2.90617 8.10156C2.77821 8.21863 2.676 8.36105 2.60606 8.51976C2.53612 8.67847 2.49998 8.85 2.49992 9.02344V16.2188C2.49484 16.5339 2.6061 16.8399 2.81242 17.0781C2.92952 17.2113 3.07377 17.3178 3.23548 17.3906C3.39719 17.4634 3.5726 17.5007 3.74992 17.5H7.49992C7.66568 17.5 7.82465 17.4342 7.94186 17.3169C8.05907 17.1997 8.12492 17.0408 8.12492 16.875V13.125C8.12492 12.9592 8.19077 12.8003 8.30798 12.6831C8.42519 12.5658 8.58416 12.5 8.74992 12.5H11.2499C11.4157 12.5 11.5747 12.5658 11.6919 12.6831C11.8091 12.8003 11.8749 12.9592 11.8749 13.125V16.875C11.8749 17.0408 11.9408 17.1997 12.058 17.3169C12.1752 17.4342 12.3342 17.5 12.4999 17.5H16.2499C16.4572 17.5018 16.6616 17.4507 16.8437 17.3516C17.0418 17.2437 17.2072 17.0845 17.3227 16.8907C17.4382 16.6969 17.4994 16.4756 17.4999 16.25V9.02344C17.4999 8.85 17.4637 8.67847 17.3938 8.51976C17.3238 8.36105 17.2216 8.21863 17.0937 8.10156Z" fill="white"/>
</svg>
