<svg width="32" height="32" viewBox="0 0 32 32" fill="none" xmlns="http://www.w3.org/2000/svg">
<path fill-rule="evenodd" clip-rule="evenodd" d="M14.5 3C14.5 3 16.839 3 18.9766 3.90414C18.9766 3.90414 21.0406 4.77711 22.6317 6.36827C22.6317 6.36827 24.2229 7.95943 25.0959 10.0234C25.0959 10.0234 26 12.161 26 14.5C26 14.5 26 16.839 25.0959 18.9766C25.0959 18.9766 24.2229 21.0406 22.6317 22.6317C22.6317 22.6317 21.0406 24.2229 18.9766 25.0959C18.9766 25.0959 16.839 26 14.5 26C14.5 26 12.161 26 10.0234 25.0959C10.0234 25.0959 7.95943 24.2229 6.36827 22.6317C6.36827 22.6317 4.77711 21.0406 3.90414 18.9766C3.90414 18.9766 3 16.839 3 14.5C3 14.5 3 12.161 3.90414 10.0234C3.90414 10.0234 4.77711 7.95943 6.36827 6.36827C6.36827 6.36827 7.95943 4.77711 10.0234 3.90414C10.0234 3.90414 12.161 3 14.5 3ZM14.5 5C14.5 5 12.5666 5 10.8025 5.74615C10.8025 5.74615 9.09781 6.46716 7.78249 7.78249C7.78249 7.78249 6.46716 9.09781 5.74615 10.8025C5.74615 10.8025 5 12.5666 5 14.5C5 14.5 5 16.4334 5.74615 18.1975C5.74615 18.1975 6.46716 19.9022 7.78249 21.2175C7.78249 21.2175 9.09781 22.5328 10.8025 23.2539C10.8025 23.2539 12.5666 24 14.5 24C14.5 24 16.4334 24 18.1975 23.2539C18.1975 23.2539 19.9022 22.5328 21.2175 21.2175C21.2175 21.2175 22.5328 19.9022 23.2539 18.1975C23.2539 18.1975 24 16.4334 24 14.5C24 14.5 24 12.5666 23.2539 10.8025C23.2539 10.8025 22.5328 9.09781 21.2175 7.78249C21.2175 7.78249 19.9022 6.46716 18.1975 5.74615C18.1975 5.74615 16.4334 5 14.5 5Z" fill="white"/>
<path d="M27.2924 28.7066C27.48 28.8942 27.7348 29 28 29C28.2653 29 28.5196 28.8947 28.7072 28.7072C28.8947 28.5196 29 28.2653 29 28C29 27.7348 28.8947 27.4805 28.7072 27.2929L22.6323 21.2181C22.4446 21.0304 22.1903 20.925 21.925 20.925C21.6598 20.925 21.4051 21.03 21.2175 21.2175C21.03 21.4051 20.925 21.6598 20.925 21.925C20.925 22.1903 21.0304 22.4446 21.2179 22.6322L27.2924 28.7066Z" fill="white"/>
</svg>
