<svg width="36" height="36" viewBox="0 0 36 36" fill="none" xmlns="http://www.w3.org/2000/svg">
<path d="M30.5156 4.93594C30.2146 4.72915 29.8675 4.59925 29.5047 4.55758C29.1419 4.5159 28.7744 4.56373 28.4344 4.69687C26.4656 5.47031 22.4719 6.75 18 6.75C13.5281 6.75 9.53437 5.47031 7.56562 4.69687C7.22477 4.56429 6.85672 4.51681 6.49338 4.55852C6.13003 4.60023 5.78232 4.72989 5.48038 4.93627C5.17843 5.14264 4.93134 5.41952 4.76052 5.74291C4.58969 6.06629 4.50027 6.42645 4.5 6.79219V14.625C4.5 19.6594 5.86406 24.3984 8.325 27.9844C10.7859 31.5703 14.3156 33.75 18 33.75C21.6844 33.75 25.1297 31.7109 27.675 27.9844C30.2203 24.2578 31.5 19.6594 31.5 14.625V6.79219C31.5006 6.42581 31.4111 6.06491 31.2394 5.74123C31.0678 5.41755 30.8192 5.14101 30.5156 4.93594ZM11.2641 18.7453C11.1662 18.8562 11.0475 18.9467 10.9147 19.0117C10.7819 19.0767 10.6375 19.1148 10.4899 19.124C10.3424 19.1331 10.1944 19.1131 10.0546 19.065C9.91474 19.0169 9.78576 18.9417 9.675 18.8437C9.5651 18.745 9.47573 18.6255 9.41201 18.4922C9.34828 18.3588 9.31145 18.2143 9.30362 18.0667C9.29578 17.9191 9.31709 17.7715 9.36634 17.6321C9.41559 17.4928 9.4918 17.3646 9.59062 17.2547C10.0102 16.7812 10.5255 16.4021 11.1024 16.1425C11.6794 15.8829 12.3048 15.7486 12.9375 15.7486C13.5702 15.7486 14.1956 15.8829 14.7726 16.1425C15.3495 16.4021 15.8648 16.7812 16.2844 17.2547C16.3832 17.3646 16.4594 17.4928 16.5087 17.6321C16.5579 17.7715 16.5792 17.9191 16.5714 18.0667C16.5635 18.2143 16.5267 18.3588 16.463 18.4922C16.3993 18.6255 16.3099 18.745 16.2 18.8437C15.9935 19.0241 15.7289 19.124 15.4547 19.125C15.2952 19.1251 15.1374 19.0914 14.992 19.0259C14.8465 18.9605 14.7166 18.8648 14.6109 18.7453C14.3999 18.5105 14.1419 18.3228 13.8536 18.1943C13.5653 18.0658 13.2532 17.9993 12.9375 17.9993C12.6218 17.9993 12.3097 18.0658 12.0214 18.1943C11.7331 18.3228 11.4751 18.5105 11.2641 18.7453ZM22.3594 25.6922C21.0656 26.5456 19.5499 27.0005 18 27.0005C16.4501 27.0005 14.9344 26.5456 13.6406 25.6922C13.3955 25.5239 13.226 25.2664 13.1682 24.9747C13.1104 24.683 13.1689 24.3803 13.3313 24.1313C13.4123 24.0073 13.517 23.9006 13.6395 23.8172C13.7619 23.7338 13.8995 23.6754 14.0445 23.6454C14.1896 23.6153 14.3391 23.6142 14.4846 23.6421C14.63 23.6699 14.7685 23.7263 14.8922 23.8078C15.8122 24.4221 16.8937 24.75 18 24.75C19.1063 24.75 20.1878 24.4221 21.1078 23.8078C21.2315 23.7263 21.37 23.6699 21.5154 23.6421C21.6609 23.6142 21.8104 23.6153 21.9555 23.6454C22.1005 23.6754 22.2381 23.7338 22.3605 23.8172C22.483 23.9006 22.5877 24.0073 22.6687 24.1313C22.8311 24.3803 22.8896 24.683 22.8318 24.9747C22.774 25.2664 22.6045 25.5239 22.3594 25.6922ZM26.325 18.8437C26.1185 19.0241 25.8539 19.124 25.5797 19.125C25.4202 19.1251 25.2624 19.0914 25.117 19.0259C24.9715 18.9605 24.8416 18.8648 24.7359 18.7453C24.5249 18.5105 24.2669 18.3228 23.9786 18.1943C23.6903 18.0658 23.3782 17.9993 23.0625 17.9993C22.7468 17.9993 22.4347 18.0658 22.1464 18.1943C21.8581 18.3228 21.6001 18.5105 21.3891 18.7453C21.2912 18.8562 21.1725 18.9467 21.0397 19.0117C20.9069 19.0767 20.7625 19.1148 20.6149 19.124C20.4674 19.1331 20.3194 19.1131 20.1796 19.065C20.0397 19.0169 19.9108 18.9417 19.8 18.8437C19.6901 18.745 19.6007 18.6255 19.537 18.4922C19.4733 18.3588 19.4365 18.2143 19.4286 18.0667C19.4208 17.9191 19.4421 17.7715 19.4913 17.6321C19.5406 17.4928 19.6168 17.3646 19.7156 17.2547C20.1352 16.7812 20.6505 16.4021 21.2274 16.1425C21.8044 15.8829 22.4298 15.7486 23.0625 15.7486C23.6952 15.7486 24.3206 15.8829 24.8976 16.1425C25.4745 16.4021 25.9898 16.7812 26.4094 17.2547C26.5082 17.3646 26.5844 17.4928 26.6337 17.6321C26.6829 17.7715 26.7042 17.9191 26.6964 18.0667C26.6885 18.2143 26.6517 18.3588 26.588 18.4922C26.5243 18.6255 26.4349 18.745 26.325 18.8437Z" fill="url(#paint0_linear_216_10972)"/>
<defs>
<linearGradient id="paint0_linear_216_10972" x1="4.5" y1="19.1465" x2="31.5" y2="19.1465" gradientUnits="userSpaceOnUse">
<stop stop-color="#F7971E"/>
<stop offset="1" stop-color="#FFD200"/>
</linearGradient>
</defs>
</svg>
