<svg width="36" height="37" viewBox="0 0 36 37" fill="none" xmlns="http://www.w3.org/2000/svg">
<path d="M30.5156 5.43594C30.2146 5.22915 29.8675 5.09925 29.5047 5.05758C29.1419 5.0159 28.7744 5.06373 28.4344 5.19687C26.4656 5.97031 22.4719 7.25 18 7.25C13.5281 7.25 9.53437 5.97031 7.56562 5.19687C7.22477 5.06429 6.85672 5.01681 6.49338 5.05852C6.13003 5.10023 5.78232 5.22989 5.48038 5.43627C5.17843 5.64264 4.93134 5.91952 4.76052 6.24291C4.58969 6.56629 4.50027 6.92645 4.5 7.29219V15.125C4.5 20.1594 5.86406 24.8984 8.325 28.4844C10.7859 32.0703 14.3156 34.25 18 34.25C21.6844 34.25 25.1297 32.2109 27.675 28.4844C30.2203 24.7578 31.5 20.1594 31.5 15.125V7.29219C31.5006 6.92581 31.4111 6.56491 31.2394 6.24123C31.0678 5.91755 30.8192 5.64101 30.5156 5.43594ZM11.2641 19.2453C11.1662 19.3562 11.0475 19.4467 10.9147 19.5117C10.7819 19.5767 10.6375 19.6148 10.4899 19.624C10.3424 19.6331 10.1944 19.6131 10.0546 19.565C9.91474 19.5169 9.78576 19.4417 9.675 19.3437C9.5651 19.245 9.47573 19.1255 9.41201 18.9922C9.34828 18.8588 9.31145 18.7143 9.30362 18.5667C9.29578 18.4191 9.31709 18.2715 9.36634 18.1321C9.41559 17.9928 9.4918 17.8646 9.59062 17.7547C10.0102 17.2812 10.5255 16.9021 11.1024 16.6425C11.6794 16.3829 12.3048 16.2486 12.9375 16.2486C13.5702 16.2486 14.1956 16.3829 14.7726 16.6425C15.3495 16.9021 15.8648 17.2812 16.2844 17.7547C16.3832 17.8646 16.4594 17.9928 16.5087 18.1321C16.5579 18.2715 16.5792 18.4191 16.5714 18.5667C16.5635 18.7143 16.5267 18.8588 16.463 18.9922C16.3993 19.1255 16.3099 19.245 16.2 19.3437C15.9935 19.5241 15.7289 19.624 15.4547 19.625C15.2952 19.6251 15.1374 19.5914 14.992 19.5259C14.8465 19.4605 14.7166 19.3648 14.6109 19.2453C14.3999 19.0105 14.1419 18.8228 13.8536 18.6943C13.5653 18.5658 13.2532 18.4993 12.9375 18.4993C12.6218 18.4993 12.3097 18.5658 12.0214 18.6943C11.7331 18.8228 11.4751 19.0105 11.2641 19.2453ZM22.3594 26.1922C21.0656 27.0456 19.5499 27.5005 18 27.5005C16.4501 27.5005 14.9344 27.0456 13.6406 26.1922C13.3955 26.0239 13.226 25.7664 13.1682 25.4747C13.1104 25.183 13.1689 24.8803 13.3313 24.6313C13.4123 24.5073 13.517 24.4006 13.6395 24.3172C13.7619 24.2338 13.8995 24.1754 14.0445 24.1454C14.1896 24.1153 14.3391 24.1142 14.4846 24.1421C14.63 24.1699 14.7685 24.2263 14.8922 24.3078C15.8122 24.9221 16.8937 25.25 18 25.25C19.1063 25.25 20.1878 24.9221 21.1078 24.3078C21.2315 24.2263 21.37 24.1699 21.5154 24.1421C21.6609 24.1142 21.8104 24.1153 21.9555 24.1454C22.1005 24.1754 22.2381 24.2338 22.3605 24.3172C22.483 24.4006 22.5877 24.5073 22.6687 24.6313C22.8311 24.8803 22.8896 25.183 22.8318 25.4747C22.774 25.7664 22.6045 26.0239 22.3594 26.1922ZM26.325 19.3437C26.1185 19.5241 25.8539 19.624 25.5797 19.625C25.4202 19.6251 25.2624 19.5914 25.117 19.5259C24.9715 19.4605 24.8416 19.3648 24.7359 19.2453C24.5249 19.0105 24.2669 18.8228 23.9786 18.6943C23.6903 18.5658 23.3782 18.4993 23.0625 18.4993C22.7468 18.4993 22.4347 18.5658 22.1464 18.6943C21.8581 18.8228 21.6001 19.0105 21.3891 19.2453C21.2912 19.3562 21.1725 19.4467 21.0397 19.5117C20.9069 19.5767 20.7625 19.6148 20.6149 19.624C20.4674 19.6331 20.3194 19.6131 20.1796 19.565C20.0397 19.5169 19.9108 19.4417 19.8 19.3437C19.6901 19.245 19.6007 19.1255 19.537 18.9922C19.4733 18.8588 19.4365 18.7143 19.4286 18.5667C19.4208 18.4191 19.4421 18.2715 19.4913 18.1321C19.5406 17.9928 19.6168 17.8646 19.7156 17.7547C20.1352 17.2812 20.6505 16.9021 21.2274 16.6425C21.8044 16.3829 22.4298 16.2486 23.0625 16.2486C23.6952 16.2486 24.3206 16.3829 24.8976 16.6425C25.4745 16.9021 25.9898 17.2812 26.4094 17.7547C26.5082 17.8646 26.5844 17.9928 26.6337 18.1321C26.6829 18.2715 26.7042 18.4191 26.6964 18.5667C26.6885 18.7143 26.6517 18.8588 26.588 18.9922C26.5243 19.1255 26.4349 19.245 26.325 19.3437Z" fill="url(#paint0_linear_67_482)"/>
<defs>
<linearGradient id="paint0_linear_67_482" x1="4.5" y1="19.6465" x2="31.5" y2="19.6465" gradientUnits="userSpaceOnUse">
<stop stop-color="#F7971E"/>
<stop offset="1" stop-color="#FFD200"/>
</linearGradient>
</defs>
</svg>
