<svg width="20" height="20" viewBox="0 0 20 20" fill="none" xmlns="http://www.w3.org/2000/svg">
<path d="M13.125 17.5C13.125 17.6658 13.0592 17.8247 12.9419 17.9419C12.8247 18.0592 12.6658 18.125 12.5 18.125H7.5C7.33424 18.125 7.17527 18.0592 7.05806 17.9419C6.94085 17.8247 6.875 17.6658 6.875 17.5C6.875 17.3342 6.94085 17.1753 7.05806 17.0581C7.17527 16.9408 7.33424 16.875 7.5 16.875H12.5C12.6658 16.875 12.8247 16.9408 12.9419 17.0581C13.0592 17.1753 13.125 17.3342 13.125 17.5ZM18.125 5V13.75C18.1229 14.2466 17.9247 14.7224 17.5736 15.0736C17.2224 15.4247 16.7466 15.6229 16.25 15.625H3.75C3.25335 15.6229 2.77763 15.4247 2.42645 15.0736C2.07526 14.7224 1.87706 14.2466 1.875 13.75V5C1.87706 4.50335 2.07526 4.02763 2.42645 3.67645C2.77763 3.32526 3.25335 3.12706 3.75 3.125H16.25C16.7466 3.12706 17.2224 3.32526 17.5736 3.67645C17.9247 4.02763 18.1229 4.50335 18.125 5ZM12.8125 9.375C12.8126 9.27041 12.7862 9.1675 12.7356 9.07594C12.685 8.98438 12.612 8.90717 12.5234 8.85156L9.08594 6.66406C8.99241 6.60336 8.88419 6.56913 8.77277 6.565C8.66134 6.56087 8.55088 6.58701 8.45312 6.64062C8.35437 6.69393 8.27179 6.77283 8.21406 6.86906C8.15632 6.96529 8.12556 7.07528 8.125 7.1875V11.5625C8.12556 11.6747 8.15632 11.7847 8.21406 11.8809C8.27179 11.9772 8.35437 12.0561 8.45312 12.1094C8.55035 12.1647 8.66108 12.1918 8.77286 12.1877C8.88465 12.1835 8.99307 12.1483 9.08594 12.0859L12.5234 9.89844C12.612 9.84283 12.685 9.76562 12.7356 9.67406C12.7862 9.5825 12.8126 9.47959 12.8125 9.375Z" fill="white"/>
</svg>
