<svg width="24" height="24" viewBox="0 0 24 24" fill="none" xmlns="http://www.w3.org/2000/svg">
<circle cx="12" cy="12" r="11.5" transform="matrix(-1 0 0 1 24 0)" fill="black" fill-opacity="0.2" stroke="#FFB443"/>
<path d="M16.1464 7.14636L7.14645 16.1464C7.05268 16.2401 7 16.3673 7 16.4999C7 16.6325 7.05268 16.7597 7.14645 16.8535C7.24021 16.9472 7.36739 16.9999 7.5 16.9999C7.63261 16.9999 7.75979 16.9472 7.85355 16.8535L16.8536 7.85347C16.9473 7.7597 17 7.63252 17 7.49992C17 7.36731 16.9473 7.24013 16.8536 7.14636C16.7598 7.05259 16.6326 6.99992 16.5 6.99992C16.3674 6.99992 16.2402 7.05259 16.1464 7.14636Z" fill="#FFB443"/>
<path d="M7.85355 7.14636C7.75979 7.05259 7.63261 6.99992 7.5 6.99992C7.36739 6.99992 7.24021 7.05259 7.14645 7.14636C7.05268 7.24013 7 7.36731 7 7.49992C7 7.63252 7.05268 7.7597 7.14645 7.85347L16.1464 16.8535C16.2402 16.9472 16.3674 16.9999 16.5 16.9999C16.6326 16.9999 16.7598 16.9472 16.8536 16.8535C16.9473 16.7597 17 16.6325 17 16.4999C17 16.3673 16.9473 16.2401 16.8536 16.1464L7.85355 7.14636Z" fill="#FFB443"/>
</svg>
