<svg width="18" height="18" viewBox="0 0 18 18" fill="none" xmlns="http://www.w3.org/2000/svg">
<path d="M14.392 9L11.8368 11.5552C11.7313 11.6607 11.6719 11.8039 11.6719 11.9531C11.6719 11.9621 11.6721 11.9711 11.6725 11.9801C11.6792 12.1198 11.7377 12.252 11.8366 12.3509C11.9421 12.4564 12.0852 12.5156 12.2344 12.5156C12.3836 12.5156 12.5266 12.4564 12.6321 12.3509L15.5852 9.39775C15.6907 9.29226 15.75 9.14918 15.75 9C15.75 8.85082 15.6907 8.70774 15.5852 8.60225L12.6322 5.64919C12.5266 5.54364 12.3836 5.48438 12.2344 5.48438C12.0852 5.48438 11.9421 5.54364 11.8366 5.64913C11.7311 5.75462 11.6719 5.89769 11.6719 6.04688C11.6719 6.19606 11.7311 6.33913 11.8366 6.44462L14.392 9Z" fill="#0F0505"/>
<path d="M7.3125 9.5625H15.1875C15.4982 9.5625 15.75 9.31066 15.75 9C15.75 8.68934 15.4982 8.4375 15.1875 8.4375H7.3125C7.00184 8.4375 6.75 8.68934 6.75 9C6.75 9.31066 7.00184 9.5625 7.3125 9.5625Z" fill="#0F0505"/>
<path d="M3.375 3.375H7.3125C7.62316 3.375 7.875 3.12316 7.875 2.8125C7.875 2.50184 7.62316 2.25 7.3125 2.25H3.375C2.90901 2.25 2.5795 2.57951 2.5795 2.57951C2.25 2.90901 2.25 3.375 2.25 3.375V14.625C2.25 15.091 2.57951 15.4205 2.57951 15.4205C2.90901 15.75 3.375 15.75 3.375 15.75H7.3125C7.62316 15.75 7.875 15.4982 7.875 15.1875C7.875 14.8768 7.62316 14.625 7.3125 14.625H3.375V3.375Z" fill="#0F0505"/>
</svg>
