<svg width="18" height="18" viewBox="0 0 18 18" fill="none" xmlns="http://www.w3.org/2000/svg">
<path d="M16.8187 6.84844C16.7483 6.62694 16.6127 6.43188 16.4295 6.28885C16.2463 6.14581 16.0241 6.06147 15.7922 6.04688L11.6156 5.75859L10.0687 1.85625C9.98428 1.64138 9.83726 1.45681 9.64671 1.32643C9.45617 1.19606 9.23087 1.12589 8.99999 1.125C8.76912 1.12589 8.54382 1.19606 8.35328 1.32643C8.16273 1.45681 8.01571 1.64138 7.93124 1.85625L6.35625 5.77969L2.20781 6.04688C1.97613 6.06241 1.75445 6.14711 1.57143 6.29001C1.38842 6.43291 1.25249 6.62744 1.18124 6.84844C1.10808 7.07282 1.1038 7.31398 1.16897 7.54081C1.23414 7.76765 1.36576 7.96976 1.54687 8.12109L4.73906 10.8211L3.78984 14.5547C3.72416 14.8073 3.73598 15.0738 3.82376 15.3195C3.91153 15.5653 4.07121 15.779 4.28203 15.9328C4.48666 16.0797 4.73046 16.1621 4.98223 16.1697C5.23399 16.1772 5.48228 16.1094 5.69531 15.975L8.99296 13.8867H9.00703L12.5578 16.1297C12.74 16.2481 12.9523 16.3115 13.1695 16.3125C13.3469 16.3111 13.5216 16.2691 13.6801 16.1896C13.8387 16.1101 13.977 15.9954 14.0843 15.8541C14.1915 15.7129 14.265 15.5489 14.299 15.3749C14.333 15.2008 14.3267 15.0212 14.2805 14.85L13.275 10.7648L16.4531 8.12109C16.6342 7.96976 16.7659 7.76765 16.831 7.54081C16.8962 7.31398 16.8919 7.07282 16.8187 6.84844Z" fill="#FFB443"/>
</svg>
