<svg width="32" height="33" viewBox="0 0 32 33" fill="none" xmlns="http://www.w3.org/2000/svg">
<path d="M16 3.5C13.4288 3.5 10.9154 4.26244 8.77759 5.6909C6.63975 7.11935 4.97351 9.14968 3.98957 11.5251C3.00563 13.9006 2.74819 16.5144 3.2498 19.0362C3.75141 21.5579 4.98953 23.8743 6.80762 25.6924C8.6257 27.5105 10.9421 28.7486 13.4638 29.2502C15.9856 29.7518 18.5995 29.4944 20.9749 28.5104C23.3503 27.5265 25.3807 25.8603 26.8091 23.7224C28.2376 21.5846 29 19.0712 29 16.5C28.9934 13.0542 27.6216 9.75145 25.1851 7.31491C22.7486 4.87837 19.4458 3.50661 16 3.5ZM22.1875 14.225L14.8625 21.225C14.6731 21.4031 14.4225 21.5016 14.1625 21.5C14.0354 21.5018 13.9093 21.4785 13.7913 21.4313C13.6733 21.3841 13.5658 21.314 13.475 21.225L9.81251 17.725C9.71092 17.6364 9.62831 17.5281 9.56963 17.4067C9.51095 17.2854 9.47741 17.1534 9.47104 17.0187C9.46467 16.8841 9.48559 16.7495 9.53255 16.6231C9.57951 16.4968 9.65154 16.3812 9.7443 16.2834C9.83706 16.1856 9.94865 16.1075 10.0723 16.0539C10.196 16.0003 10.3293 15.9723 10.4641 15.9715C10.5989 15.9707 10.7325 15.9972 10.8568 16.0493C10.9811 16.1015 11.0936 16.1783 11.1875 16.275L14.1625 19.1125L20.8125 12.775C21.0069 12.6054 21.2594 12.5174 21.5172 12.5296C21.7749 12.5418 22.018 12.6532 22.1955 12.8404C22.3731 13.0277 22.4714 13.2763 22.4699 13.5343C22.4684 13.7924 22.3672 14.0398 22.1875 14.225Z" fill="white" fill-opacity="0.15"/>
</svg>
