<svg width="21" height="21" viewBox="0 0 21 21" fill="none" xmlns="http://www.w3.org/2000/svg">
<path d="M10.5 2.375C8.89303 2.375 7.32214 2.85152 5.986 3.74431C4.64985 4.6371 3.60844 5.90605 2.99348 7.3907C2.37852 8.87535 2.21762 10.509 2.53112 12.0851C2.84463 13.6612 3.61846 15.1089 4.75476 16.2452C5.89106 17.3815 7.3388 18.1554 8.91489 18.4689C10.491 18.7824 12.1247 18.6215 13.6093 18.0065C15.094 17.3916 16.3629 16.3502 17.2557 15.014C18.1485 13.6779 18.625 12.107 18.625 10.5C18.6209 8.34638 17.7635 6.28216 16.2407 4.75932C14.7178 3.23648 12.6536 2.37913 10.5 2.375ZM13.4453 12.5547C13.5627 12.6732 13.6285 12.8332 13.6285 13C13.6285 13.1668 13.5627 13.3268 13.4453 13.4453C13.3259 13.5608 13.1662 13.6254 13 13.6254C12.8338 13.6254 12.6742 13.5608 12.5547 13.4453L10.5 11.3828L8.44532 13.4453C8.32585 13.5608 8.16618 13.6254 8 13.6254C7.83383 13.6254 7.67415 13.5608 7.55469 13.4453C7.43733 13.3268 7.37149 13.1668 7.37149 13C7.37149 12.8332 7.43733 12.6732 7.55469 12.5547L9.61719 10.5L7.55469 8.44531C7.45503 8.32388 7.40409 8.16971 7.4118 8.01281C7.41951 7.8559 7.4853 7.70747 7.59639 7.59638C7.70747 7.4853 7.8559 7.4195 8.01281 7.4118C8.16972 7.40409 8.32388 7.45502 8.44532 7.55469L10.5 9.61719L12.5547 7.55469C12.6761 7.45502 12.8303 7.40409 12.9872 7.4118C13.1441 7.4195 13.2925 7.4853 13.4036 7.59638C13.5147 7.70747 13.5805 7.8559 13.5882 8.01281C13.5959 8.16971 13.545 8.32388 13.4453 8.44531L11.3828 10.5L13.4453 12.5547Z" fill="white"/>
</svg>
